<svg width="143" height="31" viewBox="0 0 143 31" fill="none" xmlns="http://www.w3.org/2000/svg">
<path d="M5.25 10.7812V24H0.75V7.09375H4.98438L5.25 10.7812ZM10.3438 6.98438L10.2656 11.1562C10.0469 11.125 9.78125 11.099 9.46875 11.0781C9.16667 11.0469 8.89062 11.0312 8.64062 11.0312C8.00521 11.0312 7.45312 11.1146 6.98438 11.2812C6.52604 11.4375 6.14062 11.6719 5.82812 11.9844C5.52604 12.2969 5.29688 12.6771 5.14062 13.125C4.99479 13.5729 4.91146 14.0833 4.89062 14.6562L3.98438 14.375C3.98438 13.2812 4.09375 12.276 4.3125 11.3594C4.53125 10.4323 4.84896 9.625 5.26562 8.9375C5.69271 8.25 6.21354 7.71875 6.82812 7.34375C7.44271 6.96875 8.14583 6.78125 8.9375 6.78125C9.1875 6.78125 9.44271 6.80208 9.70312 6.84375C9.96354 6.875 10.1771 6.92188 10.3438 6.98438ZM19.9375 24.3125C18.625 24.3125 17.4479 24.1042 16.4062 23.6875C15.3646 23.2604 14.4792 22.6719 13.75 21.9219C13.0312 21.1719 12.4792 20.3021 12.0938 19.3125C11.7083 18.3125 11.5156 17.25 11.5156 16.125V15.5C11.5156 14.2188 11.6979 13.0469 12.0625 11.9844C12.4271 10.9219 12.9479 10 13.625 9.21875C14.3125 8.4375 15.1458 7.83854 16.125 7.42188C17.1042 6.99479 18.2083 6.78125 19.4375 6.78125C20.6354 6.78125 21.6979 6.97917 22.625 7.375C23.5521 7.77083 24.3281 8.33333 24.9531 9.0625C25.5885 9.79167 26.0677 10.6667 26.3906 11.6875C26.7135 12.6979 26.875 13.8229 26.875 15.0625V16.9375H13.4375V13.9375H22.4531V13.5938C22.4531 12.9688 22.3385 12.4115 22.1094 11.9219C21.8906 11.4219 21.5573 11.026 21.1094 10.7344C20.6615 10.4427 20.0885 10.2969 19.3906 10.2969C18.7969 10.2969 18.2865 10.4271 17.8594 10.6875C17.4323 10.9479 17.0833 11.3125 16.8125 11.7812C16.5521 12.25 16.3542 12.8021 16.2188 13.4375C16.0938 14.0625 16.0312 14.75 16.0312 15.5V16.125C16.0312 16.8021 16.125 17.4271 16.3125 18C16.5104 18.5729 16.7865 19.0677 17.1406 19.4844C17.5052 19.901 17.9427 20.224 18.4531 20.4531C18.974 20.6823 19.5625 20.7969 20.2188 20.7969C21.0312 20.7969 21.7865 20.6406 22.4844 20.3281C23.1927 20.0052 23.8021 19.5208 24.3125 18.875L26.5 21.25C26.1458 21.7604 25.6615 22.25 25.0469 22.7188C24.4427 23.1875 23.7135 23.5729 22.8594 23.875C22.0052 24.1667 21.0312 24.3125 19.9375 24.3125ZM38.5625 20.1875V12.6562C38.5625 12.1146 38.474 11.651 38.2969 11.2656C38.1198 10.8698 37.8438 10.5625 37.4688 10.3438C37.1042 10.125 36.6302 10.0156 36.0469 10.0156C35.5469 10.0156 35.1146 10.1042 34.75 10.2812C34.3854 10.4479 34.1042 10.6927 33.9062 11.0156C33.7083 11.3281 33.6094 11.6979 33.6094 12.125H29.1094C29.1094 11.4062 29.276 10.724 29.6094 10.0781C29.9427 9.43229 30.4271 8.86458 31.0625 8.375C31.6979 7.875 32.4531 7.48438 33.3281 7.20312C34.2135 6.92188 35.2031 6.78125 36.2969 6.78125C37.6094 6.78125 38.776 7 39.7969 7.4375C40.8177 7.875 41.6198 8.53125 42.2031 9.40625C42.7969 10.2812 43.0938 11.375 43.0938 12.6875V19.9219C43.0938 20.849 43.151 21.6094 43.2656 22.2031C43.3802 22.7865 43.5469 23.2969 43.7656 23.7344V24H39.2188C39 23.5417 38.8333 22.9688 38.7188 22.2812C38.6146 21.5833 38.5625 20.8854 38.5625 20.1875ZM39.1562 13.7031L39.1875 16.25H36.6719C36.0781 16.25 35.5625 16.3177 35.125 16.4531C34.6875 16.5885 34.3281 16.7812 34.0469 17.0312C33.7656 17.2708 33.5573 17.5521 33.4219 17.875C33.2969 18.1979 33.2344 18.5521 33.2344 18.9375C33.2344 19.3229 33.3229 19.6719 33.5 19.9844C33.6771 20.2865 33.9323 20.526 34.2656 20.7031C34.599 20.8698 34.9896 20.9531 35.4375 20.9531C36.1146 20.9531 36.7031 20.8177 37.2031 20.5469C37.7031 20.276 38.0885 19.9427 38.3594 19.5469C38.6406 19.151 38.7865 18.776 38.7969 18.4219L39.9844 20.3281C39.8177 20.7552 39.5885 21.1979 39.2969 21.6562C39.0156 22.1146 38.6562 22.5469 38.2188 22.9531C37.7812 23.349 37.2552 23.6771 36.6406 23.9375C36.026 24.1875 35.2969 24.3125 34.4531 24.3125C33.3802 24.3125 32.4062 24.099 31.5312 23.6719C30.6667 23.2344 29.9792 22.6354 29.4688 21.875C28.9688 21.1042 28.7188 20.2292 28.7188 19.25C28.7188 18.3646 28.8854 17.5781 29.2188 16.8906C29.5521 16.2031 30.0417 15.625 30.6875 15.1562C31.3438 14.6771 32.1615 14.3177 33.1406 14.0781C34.1198 13.8281 35.2552 13.7031 36.5469 13.7031H39.1562ZM53.5469 20.7969C54.099 20.7969 54.5885 20.6927 55.0156 20.4844C55.4427 20.2656 55.776 19.9635 56.0156 19.5781C56.2656 19.1823 56.3958 18.7188 56.4062 18.1875H60.6406C60.6302 19.375 60.3125 20.4323 59.6875 21.3594C59.0625 22.276 58.224 23 57.1719 23.5312C56.1198 24.0521 54.9427 24.3125 53.6406 24.3125C52.3281 24.3125 51.1823 24.0938 50.2031 23.6562C49.2344 23.2188 48.4271 22.6146 47.7812 21.8438C47.1354 21.0625 46.651 20.1562 46.3281 19.125C46.0052 18.0833 45.8438 16.9688 45.8438 15.7812V15.3281C45.8438 14.1302 46.0052 13.0156 46.3281 11.9844C46.651 10.9427 47.1354 10.0365 47.7812 9.26562C48.4271 8.48438 49.2344 7.875 50.2031 7.4375C51.1719 7 52.3073 6.78125 53.6094 6.78125C54.9948 6.78125 56.2083 7.04688 57.25 7.57812C58.3021 8.10938 59.125 8.86979 59.7188 9.85938C60.3229 10.8385 60.6302 12 60.6406 13.3438H56.4062C56.3958 12.7812 56.276 12.2708 56.0469 11.8125C55.8281 11.3542 55.5052 10.9896 55.0781 10.7188C54.6615 10.4375 54.1458 10.2969 53.5312 10.2969C52.875 10.2969 52.3385 10.4375 51.9219 10.7188C51.5052 10.9896 51.1823 11.3646 50.9531 11.8438C50.724 12.3125 50.5625 12.849 50.4688 13.4531C50.3854 14.0469 50.3438 14.6719 50.3438 15.3281V15.7812C50.3438 16.4375 50.3854 17.0677 50.4688 17.6719C50.5521 18.276 50.7083 18.8125 50.9375 19.2812C51.1771 19.75 51.5052 20.1198 51.9219 20.3906C52.3385 20.6615 52.8802 20.7969 53.5469 20.7969ZM71.5312 7.09375V10.2812H61.6875V7.09375H71.5312ZM64.125 2.92188H68.625V18.9062C68.625 19.3958 68.6875 19.7708 68.8125 20.0312C68.9479 20.2917 69.1458 20.474 69.4062 20.5781C69.6667 20.6719 69.9948 20.7188 70.3906 20.7188C70.6719 20.7188 70.9219 20.7083 71.1406 20.6875C71.3698 20.6562 71.5625 20.625 71.7188 20.5938L71.7344 23.9062C71.349 24.0312 70.9323 24.1302 70.4844 24.2031C70.0365 24.276 69.5417 24.3125 69 24.3125C68.0104 24.3125 67.1458 24.151 66.4062 23.8281C65.6771 23.4948 65.1146 22.9635 64.7188 22.2344C64.3229 21.5052 64.125 20.5469 64.125 19.3594V2.92188Z" fill="#61DCFB"/>
<path d="M74.3125 21.8281C74.3125 21.1615 74.5417 20.6042 75 20.1562C75.4688 19.7083 76.0885 19.4844 76.8594 19.4844C77.6302 19.4844 78.2448 19.7083 78.7031 20.1562C79.1719 20.6042 79.4062 21.1615 79.4062 21.8281C79.4062 22.4948 79.1719 23.0521 78.7031 23.5C78.2448 23.9479 77.6302 24.1719 76.8594 24.1719C76.0885 24.1719 75.4688 23.9479 75 23.5C74.5417 23.0521 74.3125 22.4948 74.3125 21.8281Z" fill="#E1E1E6"/>
<path d="M83.375 0H87.875V20.125L87.4219 24H83.375V0ZM98.5781 15.375V15.7031C98.5781 16.9635 98.4427 18.1198 98.1719 19.1719C97.9115 20.224 97.5052 21.1354 96.9531 21.9062C96.401 22.6667 95.7135 23.2604 94.8906 23.6875C94.0781 24.1042 93.1198 24.3125 92.0156 24.3125C90.9844 24.3125 90.0885 24.1042 89.3281 23.6875C88.5781 23.2708 87.9479 22.6823 87.4375 21.9219C86.9271 21.1615 86.5156 20.2708 86.2031 19.25C85.8906 18.2292 85.6562 17.1146 85.5 15.9062V15.1875C85.6562 13.9792 85.8906 12.8646 86.2031 11.8438C86.5156 10.8229 86.9271 9.93229 87.4375 9.17188C87.9479 8.41146 88.5781 7.82292 89.3281 7.40625C90.0781 6.98958 90.9635 6.78125 91.9844 6.78125C93.099 6.78125 94.0677 6.99479 94.8906 7.42188C95.724 7.83854 96.4115 8.43229 96.9531 9.20312C97.5052 9.96354 97.9115 10.8698 98.1719 11.9219C98.4427 12.9635 98.5781 14.1146 98.5781 15.375ZM94.0781 15.7031V15.375C94.0781 14.6875 94.026 14.0417 93.9219 13.4375C93.8281 12.8229 93.6615 12.2865 93.4219 11.8281C93.1823 11.3594 92.8542 10.9896 92.4375 10.7188C92.0312 10.4479 91.5052 10.3125 90.8594 10.3125C90.2448 10.3125 89.724 10.4167 89.2969 10.625C88.8698 10.8333 88.5156 11.125 88.2344 11.5C87.9635 11.875 87.7604 12.3229 87.625 12.8438C87.4896 13.3542 87.4062 13.9167 87.375 14.5312V16.5781C87.4062 17.401 87.5417 18.1302 87.7812 18.7656C88.0312 19.3906 88.4062 19.8854 88.9062 20.25C89.4167 20.6042 90.0781 20.7812 90.8906 20.7812C91.526 20.7812 92.0521 20.6562 92.4688 20.4062C92.8854 20.1562 93.2083 19.8021 93.4375 19.3438C93.6771 18.8854 93.8438 18.349 93.9375 17.7344C94.0312 17.1094 94.0781 16.4323 94.0781 15.7031ZM106.125 0V24H101.609V0H106.125ZM109.125 15.7188V15.3906C109.125 14.151 109.302 13.0104 109.656 11.9688C110.01 10.9167 110.526 10.0052 111.203 9.23438C111.88 8.46354 112.714 7.86458 113.703 7.4375C114.693 7 115.828 6.78125 117.109 6.78125C118.391 6.78125 119.531 7 120.531 7.4375C121.531 7.86458 122.37 8.46354 123.047 9.23438C123.734 10.0052 124.255 10.9167 124.609 11.9688C124.964 13.0104 125.141 14.151 125.141 15.3906V15.7188C125.141 16.9479 124.964 18.0885 124.609 19.1406C124.255 20.1823 123.734 21.0938 123.047 21.875C122.37 22.6458 121.536 23.2448 120.547 23.6719C119.557 24.099 118.422 24.3125 117.141 24.3125C115.859 24.3125 114.719 24.099 113.719 23.6719C112.729 23.2448 111.891 22.6458 111.203 21.875C110.526 21.0938 110.01 20.1823 109.656 19.1406C109.302 18.0885 109.125 16.9479 109.125 15.7188ZM113.625 15.3906V15.7188C113.625 16.4271 113.688 17.0885 113.812 17.7031C113.938 18.3177 114.135 18.8594 114.406 19.3281C114.688 19.7865 115.052 20.1458 115.5 20.4062C115.948 20.6667 116.495 20.7969 117.141 20.7969C117.766 20.7969 118.302 20.6667 118.75 20.4062C119.198 20.1458 119.557 19.7865 119.828 19.3281C120.099 18.8594 120.297 18.3177 120.422 17.7031C120.557 17.0885 120.625 16.4271 120.625 15.7188V15.3906C120.625 14.7031 120.557 14.0573 120.422 13.4531C120.297 12.8385 120.094 12.2969 119.812 11.8281C119.542 11.349 119.182 10.974 118.734 10.7031C118.286 10.4323 117.745 10.2969 117.109 10.2969C116.474 10.2969 115.932 10.4323 115.484 10.7031C115.047 10.974 114.688 11.349 114.406 11.8281C114.135 12.2969 113.938 12.8385 113.812 13.4531C113.688 14.0573 113.625 14.7031 113.625 15.3906ZM138.609 7.09375H142.688V23.4375C142.688 24.9792 142.344 26.2865 141.656 27.3594C140.979 28.4427 140.031 29.2604 138.812 29.8125C137.594 30.375 136.177 30.6562 134.562 30.6562C133.854 30.6562 133.104 30.5625 132.312 30.375C131.531 30.1875 130.781 29.8958 130.062 29.5C129.354 29.1042 128.76 28.6042 128.281 28L130.266 25.3438C130.786 25.9479 131.391 26.4167 132.078 26.75C132.766 27.0938 133.526 27.2656 134.359 27.2656C135.172 27.2656 135.859 27.1146 136.422 26.8125C136.984 26.5208 137.417 26.0885 137.719 25.5156C138.021 24.9531 138.172 24.2708 138.172 23.4688V11L138.609 7.09375ZM127.234 15.75V15.4219C127.234 14.1302 127.391 12.9583 127.703 11.9062C128.026 10.8438 128.479 9.93229 129.062 9.17188C129.656 8.41146 130.375 7.82292 131.219 7.40625C132.062 6.98958 133.016 6.78125 134.078 6.78125C135.203 6.78125 136.146 6.98958 136.906 7.40625C137.667 7.82292 138.292 8.41667 138.781 9.1875C139.271 9.94792 139.651 10.849 139.922 11.8906C140.203 12.9219 140.422 14.0521 140.578 15.2812V16C140.422 17.1771 140.188 18.2708 139.875 19.2812C139.562 20.2917 139.151 21.1771 138.641 21.9375C138.13 22.6875 137.495 23.2708 136.734 23.6875C135.984 24.1042 135.089 24.3125 134.047 24.3125C133.005 24.3125 132.062 24.099 131.219 23.6719C130.385 23.2448 129.672 22.6458 129.078 21.875C128.484 21.1042 128.026 20.1979 127.703 19.1562C127.391 18.1146 127.234 16.9792 127.234 15.75ZM131.734 15.4219V15.75C131.734 16.4479 131.802 17.099 131.938 17.7031C132.073 18.3073 132.281 18.8438 132.562 19.3125C132.854 19.7708 133.214 20.1302 133.641 20.3906C134.078 20.6406 134.594 20.7656 135.188 20.7656C136.01 20.7656 136.682 20.5938 137.203 20.25C137.724 19.8958 138.115 19.4115 138.375 18.7969C138.635 18.1823 138.786 17.474 138.828 16.6719V14.625C138.807 13.9688 138.719 13.3802 138.562 12.8594C138.406 12.3281 138.188 11.875 137.906 11.5C137.625 11.125 137.26 10.8333 136.812 10.625C136.365 10.4167 135.833 10.3125 135.219 10.3125C134.625 10.3125 134.109 10.4479 133.672 10.7188C133.245 10.9792 132.885 11.3385 132.594 11.7969C132.312 12.2552 132.099 12.7969 131.953 13.4219C131.807 14.0365 131.734 14.7031 131.734 15.4219Z" fill="#F2C94C"/>
</svg>
